<svg width="203" height="52" viewBox="0 0 203 52" fill="none" xmlns="http://www.w3.org/2000/svg">
<path fill-rule="evenodd" clip-rule="evenodd" d="M-0.0001297 14.5062C0.105019 14.404 0.209908 14.302 0.314598 14.2001C3.48608 11.114 6.48363 8.19711 11.4826 8.31148C15.4607 8.4025 18.0312 10.1415 20.8159 12.0253C22.637 13.2573 24.5497 14.5513 27.0076 15.4867C27.8066 15.7908 28.5607 16.082 29.2822 16.3605C34.1642 18.2451 37.5505 19.5524 43.2226 20.3961C51.6214 21.6454 60.1988 17.4387 68.2065 12.4829C66.1168 31.1503 51.5829 45.6067 33.9644 45.6067C16.9879 45.6067 2.87525 32.1846 -0.0001297 14.5062Z" fill="#0055FF"/>
<path fill-rule="evenodd" clip-rule="evenodd" d="M34.4999 49.9999C53.5537 49.9999 68.9999 33.0923 68.9999 12.2356C68.9999 10.1688 68.8482 8.14089 68.5564 6.16432C66.3832 4.7095 64.0992 3.68111 61.7549 3.32528C53.2601 2.03586 46.93 9.10922 40.5677 16.2185C34.3234 23.196 28.0481 30.2081 19.6649 29.3827C12.5297 28.6802 5.1583 21.0098 0.0556641 14.4008C1.08068 34.25 16.11 49.9999 34.4999 49.9999Z" fill="#0084F8"/>
<path d="M103.47 8.62C105.43 8.62 107.11 8.94666 108.51 9.6C109.957 10.2533 111.193 11.1167 112.22 12.19L113.2 9.18H124.68V37.11C124.68 38.0433 124.773 38.72 124.96 39.14C125.147 39.56 125.52 39.8167 126.08 39.91C126.687 39.9567 127.363 39.8633 128.11 39.63L129.51 40.54C129.697 41.4733 129.65 42.5933 129.37 43.9C129.137 45.2067 128.623 46.4433 127.83 47.61C127.037 48.7767 125.917 49.7333 124.47 50.48C123.023 51.2733 121.18 51.6 118.94 51.46C116.7 51.32 115.02 50.6433 113.9 49.43C112.78 48.2633 111.94 46.49 111.38 44.11C110.167 46.63 108.51 48.52 106.41 49.78C104.31 51.04 101.93 51.6 99.27 51.46C97.03 51.32 94.9533 50.76 93.04 49.78C91.1267 48.8 89.4467 47.4233 88 45.65C86.6 43.83 85.48 41.6833 84.64 39.21C83.8467 36.69 83.45 33.8433 83.45 30.67C83.45 26.89 83.9867 23.6233 85.06 20.87C86.1333 18.1167 87.58 15.83 89.4 14.01C91.22 12.19 93.3433 10.8367 95.77 9.95C98.1967 9.06333 100.763 8.62 103.47 8.62ZM97.31 29.48C97.31 32.2333 97.8933 34.4033 99.06 35.99C100.227 37.5767 101.907 38.37 104.1 38.37C105.733 38.37 107.203 37.95 108.51 37.11C109.863 36.2233 110.703 34.9633 111.03 33.33V22.83C110.237 22.0833 109.28 21.43 108.16 20.87C107.04 20.31 105.873 20.03 104.66 20.03C102.187 20.03 100.343 20.87 99.13 22.55C97.9167 24.1833 97.31 26.4933 97.31 29.48ZM154.155 25.07C153.595 23.4833 152.709 22.55 151.495 22.27C150.329 21.9433 149.045 22.0133 147.645 22.48C146.432 22.9467 145.172 23.6933 143.865 24.72C142.559 25.7467 141.719 27.0067 141.345 28.5V50.2H127.695V9.88H141.345V19.19C142.465 15.9233 144.052 13.4033 146.105 11.63C148.205 9.85666 150.445 8.85333 152.825 8.62C153.525 8.57333 154.249 8.57333 154.995 8.62C155.742 8.66666 156.465 8.83 157.165 9.11C157.912 9.39 158.589 9.81 159.195 10.37C159.849 10.93 160.409 11.7 160.875 12.68C161.295 13.5667 161.505 14.6167 161.505 15.83C161.505 16.9967 161.295 18.1867 160.875 19.4C160.502 20.5667 159.942 21.6867 159.195 22.76C158.495 23.8333 157.632 24.6733 156.605 25.28L154.155 25.07ZM175.124 8.62C177.084 8.62 178.764 8.94666 180.164 9.6C181.611 10.2533 182.848 11.1167 183.874 12.19L184.854 9.18H196.334V37.11C196.334 38.0433 196.428 38.72 196.614 39.14C196.801 39.56 197.174 39.8167 197.734 39.91C198.341 39.9567 199.018 39.8633 199.764 39.63L201.164 40.54C201.351 41.4733 201.304 42.5933 201.024 43.9C200.791 45.2067 200.278 46.4433 199.484 47.61C198.691 48.7767 197.571 49.7333 196.124 50.48C194.678 51.2733 192.834 51.6 190.594 51.46C188.354 51.32 186.674 50.6433 185.554 49.43C184.434 48.2633 183.594 46.49 183.034 44.11C181.821 46.63 180.164 48.52 178.064 49.78C175.964 51.04 173.584 51.6 170.924 51.46C168.684 51.32 166.608 50.76 164.694 49.78C162.781 48.8 161.101 47.4233 159.654 45.65C158.254 43.83 157.134 41.6833 156.294 39.21C155.501 36.69 155.104 33.8433 155.104 30.67C155.104 26.89 155.641 23.6233 156.714 20.87C157.788 18.1167 159.234 15.83 161.054 14.01C162.874 12.19 164.998 10.8367 167.424 9.95C169.851 9.06333 172.418 8.62 175.124 8.62ZM168.964 29.48C168.964 32.2333 169.548 34.4033 170.714 35.99C171.881 37.5767 173.561 38.37 175.754 38.37C177.388 38.37 178.858 37.95 180.164 37.11C181.518 36.2233 182.358 34.9633 182.684 33.33V22.83C181.891 22.0833 180.934 21.43 179.814 20.87C178.694 20.31 177.528 20.03 176.314 20.03C173.841 20.03 171.998 20.87 170.784 22.55C169.571 24.1833 168.964 26.4933 168.964 29.48Z" fill="black"/>
</svg>
