<svg width="44" height="49" viewBox="0 0 44 49" fill="none" xmlns="http://www.w3.org/2000/svg">
<circle cx="32.7269" cy="11.429" r="8.3045" fill="#FF4C4C"/>
<path d="M27.8824 37.5882V39.9411C27.8824 43.8396 24.722 47 20.8235 47C16.925 47 13.7647 43.8396 13.7647 39.9411V37.5884M27.8824 37.5882L13.7647 37.5884M27.8824 37.5882H37.2941C38.5936 37.5882 39.6471 36.5348 39.6471 35.2352V33.8566C39.6471 33.2326 39.3989 32.6344 38.9577 32.193L37.756 30.9912C37.4602 30.6955 37.2941 30.294 37.2941 29.8756V21.1176C37.2941 20.7025 37.2791 20.2906 37.2482 19.8849M13.7647 37.5884L4.35294 37.5885C3.05346 37.5885 2 36.5343 2 35.2348V33.8566C2 33.2326 2.24809 32.635 2.68934 32.1936L3.89108 30.9902C4.1868 30.6944 4.35294 30.2946 4.35294 29.8762V21.1176C4.35294 12.0212 11.7271 4.64701 20.8235 4.64701C22.4979 4.64701 24.1139 4.89685 25.6363 5.36129M37.2482 19.8849C40.0867 18.2642 42 15.2084 42 11.7058C42 6.50786 37.7862 2.29407 32.5882 2.29407C29.8347 2.29407 27.3574 3.4765 25.6363 5.36129M37.2482 19.8849C35.8743 20.6693 34.2836 21.1176 32.5882 21.1176C27.3903 21.1176 23.1765 16.9038 23.1765 11.7058C23.1765 9.26136 24.1084 7.03455 25.6363 5.36129M25.6363 5.36129L25.6396 5.36229" stroke="#1A1A1A" stroke-width="4" stroke-linecap="round" stroke-linejoin="round"/>
</svg>
