<svg width="48" height="49" viewBox="0 0 48 49" fill="none" xmlns="http://www.w3.org/2000/svg">
<path d="M36.7518 42.5703C33.6187 39.0712 29.0665 36.8692 24 36.8692C18.9335 36.8692 14.3809 39.0712 11.2478 42.5703M24 46.647C11.8497 46.647 2 36.7972 2 24.647C2 12.4967 11.8497 2.64697 24 2.64697C36.1503 2.64697 46 12.4967 46 24.647C46 36.7972 36.1503 46.647 24 46.647ZM24 29.5359C19.9499 29.5359 16.6667 26.2526 16.6667 22.2025C16.6667 18.1524 19.9499 14.8692 24 14.8692C28.0501 14.8692 31.3333 18.1524 31.3333 22.2025C31.3333 26.2526 28.0501 29.5359 24 29.5359Z" stroke="black" stroke-width="4" stroke-linecap="round" stroke-linejoin="round"/>
</svg>
